<?xml version="1.0" encoding="utf-8"?>
<!-- Generator: Adobe Illustrator 17.0.1, SVG Export Plug-In . SVG Version: 6.00 Build 0)  -->
<!DOCTYPE svg PUBLIC "-//W3C//DTD SVG 1.1//EN" "http://www.w3.org/Graphics/SVG/1.1/DTD/svg11.dtd">
<svg version="1.1" id="Layer_3" xmlns="http://www.w3.org/2000/svg" xmlns:xlink="http://www.w3.org/1999/xlink" x="0px" y="0px"
	 width="500px" height="500px" viewBox="0 0 500 500" enable-background="new 0 0 500 500" xml:space="preserve">
<g>
	<path fill="#231F20" d="M37.5,37.5V150v300v12.5h425V450V150V37.5H37.5z M437.5,62.5v75h-375v-75H437.5z M62.5,162.5h75v75h-75
		V162.5z M262.5,237.5v-75h75v75H262.5z M237.5,237.5h-75v-75h75V237.5z M62.5,262.5h75v75h-75V262.5z M162.5,262.5h75v75h-75V262.5
		z M237.5,362.5v75h-75v-75H237.5z M262.5,362.5h75v75h-75V362.5z M362.5,362.5h75v75h-75V362.5z M437.5,337.5h-75v-75h75V337.5z
		 M437.5,237.5h-75v-75h75V237.5z M62.5,362.5h75v75h-75V362.5z"/>
	<rect x="150" y="87.5" fill="#231F20" width="200" height="25"/>
</g>
</svg>
