<?xml version="1.0" encoding="utf-8"?>
<!-- Generator: Adobe Illustrator 17.0.1, SVG Export Plug-In . SVG Version: 6.00 Build 0)  -->
<!DOCTYPE svg PUBLIC "-//W3C//DTD SVG 1.1//EN" "http://www.w3.org/Graphics/SVG/1.1/DTD/svg11.dtd">
<svg version="1.1" id="Layer_3" xmlns="http://www.w3.org/2000/svg" xmlns:xlink="http://www.w3.org/1999/xlink" x="0px" y="0px"
	 width="500px" height="500px" viewBox="0 0 500 500" enable-background="new 0 0 500 500" xml:space="preserve">
<g>
	<path fill="#231F20" d="M465.5,467.815h-425v-125h425V467.815z M65.5,442.815h375v-75h-375V442.815z"/>
</g>
<g>
	<g>
		<path fill="#231F20" d="M65.5,317.815h-25v-25h25V317.815z M65.5,267.815h-25v-25h25V267.815z M65.5,217.815h-25v-25h25V217.815z
			 M65.5,167.815h-25v-25h25V167.815z M65.5,117.815h-25v-25h25V117.815z"/>
	</g>
	<g>
		<rect x="40.5" y="42.815" fill="#231F20" width="25" height="25"/>
	</g>
	<g>
		<path fill="#231F20" d="M415.5,67.815h-25v-25h25V67.815z M365.5,67.815h-25v-25h25V67.815z M315.5,67.815h-25v-25h25V67.815z
			 M265.5,67.815h-25v-25h25V67.815z M215.5,67.815h-25v-25h25V67.815z M165.5,67.815h-25v-25h25V67.815z M115.5,67.815h-25v-25h25
			V67.815z"/>
	</g>
	<g>
		<rect x="440.5" y="42.815" fill="#231F20" width="25" height="25"/>
	</g>
	<g>
		<path fill="#231F20" d="M465.5,317.815h-25v-25h25V317.815z M465.5,267.815h-25v-25h25V267.815z M465.5,217.815h-25v-25h25
			V217.815z M465.5,167.815h-25v-25h25V167.815z M465.5,117.815h-25v-25h25V117.815z"/>
	</g>
</g>
<g>
	<rect x="103" y="392.815" fill="#231F20" width="75" height="25"/>
</g>
<g>
	<rect x="303" y="392.815" fill="#231F20" width="25" height="25"/>
</g>
<g>
	<rect x="340.5" y="392.815" fill="#231F20" width="25" height="25"/>
</g>
<g>
	<rect x="378" y="392.815" fill="#231F20" width="25" height="25"/>
</g>
</svg>
