<?xml version="1.0" encoding="utf-8"?>
<!-- Generator: Adobe Illustrator 17.0.1, SVG Export Plug-In . SVG Version: 6.00 Build 0)  -->
<!DOCTYPE svg PUBLIC "-//W3C//DTD SVG 1.1//EN" "http://www.w3.org/Graphics/SVG/1.1/DTD/svg11.dtd">
<svg version="1.1" id="HEADER" xmlns="http://www.w3.org/2000/svg" xmlns:xlink="http://www.w3.org/1999/xlink" x="0px" y="0px"
	 width="500px" height="500px" viewBox="0 0 500 500" enable-background="new 0 0 500 500" xml:space="preserve">
<g>
	<path fill="#231F20" d="M462.5,162.5h-425v-125h425V162.5z M62.5,137.5h375v-75h-375V137.5z"/>
</g>
<g>
	<g>
		<rect x="437.5" y="437.5" fill="#231F20" width="25" height="25"/>
	</g>
	<g>
		<path fill="#231F20" d="M412.5,462.5h-25v-25h25V462.5z M362.5,462.5h-25v-25h25V462.5z M312.5,462.5h-25v-25h25V462.5z
			 M262.5,462.5h-25v-25h25V462.5z M212.5,462.5h-25v-25h25V462.5z M162.5,462.5h-25v-25h25V462.5z M112.5,462.5h-25v-25h25V462.5z"
			/>
	</g>
	<g>
		<rect x="37.5" y="437.5" fill="#231F20" width="25" height="25"/>
	</g>
	<g>
		<path fill="#231F20" d="M62.5,412.5h-25v-25h25V412.5z M62.5,362.5h-25v-25h25V362.5z M62.5,312.5h-25v-25h25V312.5z M62.5,262.5
			h-25v-25h25V262.5z M62.5,212.5h-25v-25h25V212.5z"/>
	</g>
	<g>
		<path fill="#231F20" d="M462.5,412.5h-25v-25h25V412.5z M462.5,362.5h-25v-25h25V362.5z M462.5,312.5h-25v-25h25V312.5z
			 M462.5,262.5h-25v-25h25V262.5z M462.5,212.5h-25v-25h25V212.5z"/>
	</g>
</g>
<g>
	<rect x="100" y="87.5" fill="#231F20" width="50" height="25"/>
</g>
<g>
	<rect x="200" y="87.5" fill="#231F20" width="200" height="25"/>
</g>
</svg>
