<?xml version="1.0" encoding="utf-8"?>
<!-- Generator: Adobe Illustrator 17.0.1, SVG Export Plug-In . SVG Version: 6.00 Build 0)  -->
<!DOCTYPE svg PUBLIC "-//W3C//DTD SVG 1.1//EN" "http://www.w3.org/Graphics/SVG/1.1/DTD/svg11.dtd">
<svg version="1.1" id="Layer_2" xmlns="http://www.w3.org/2000/svg" xmlns:xlink="http://www.w3.org/1999/xlink" x="0px" y="0px"
	 width="500px" height="500px" viewBox="0 0 500 500" enable-background="new 0 0 500 500" xml:space="preserve">
<g>
	<path fill="#231F20" d="M465.5,464.5h-425v-425h425V464.5z M65.5,439.5h375v-375h-375V439.5z"/>
</g>
<g>
	<rect x="53" y="352" fill="#231F20" width="400" height="25"/>
</g>
<g>
	<rect x="103" y="89.5" fill="#231F20" width="50" height="25"/>
</g>
<g>
	<rect x="203" y="89.5" fill="#231F20" width="200" height="25"/>
</g>
<g>
	<rect x="267" y="161.537" fill="#231F20" width="119.11" height="30.925"/>
</g>
<g>
	<rect x="267" y="211.537" fill="#231F20" width="137.5" height="30.925"/>
</g>
<g>
	<rect x="267" y="277" fill="#231F20" width="75" height="37.5"/>
</g>
<g>
	<rect x="103" y="402.548" fill="#231F20" width="75" height="46.327"/>
</g>
<g>
	<rect x="215.5" y="402.548" fill="#231F20" width="75" height="46.327"/>
</g>
<g>
	<rect x="328" y="402.548" fill="#231F20" width="75" height="46.327"/>
</g>
<path fill="#231F20" d="M219.274,153.584H109.398c-8.228,0-14.898,6.67-14.898,14.898v185.563c0,8.228,139.673,8.228,139.673,0
	V168.482C234.173,160.254,227.503,153.584,219.274,153.584z M212.715,352.219h-97.126V184.026h97.126V352.219z"/>
</svg>
