<?xml version="1.0" encoding="utf-8"?>
<!-- Generator: Adobe Illustrator 17.0.1, SVG Export Plug-In . SVG Version: 6.00 Build 0)  -->
<!DOCTYPE svg PUBLIC "-//W3C//DTD SVG 1.1//EN" "http://www.w3.org/Graphics/SVG/1.1/DTD/svg11.dtd">
<svg version="1.1" id="Layer_2" xmlns="http://www.w3.org/2000/svg" xmlns:xlink="http://www.w3.org/1999/xlink" x="0px" y="0px"
	 width="500px" height="500px" viewBox="0 0 500 500" enable-background="new 0 0 500 500" xml:space="preserve">
<g>
	<g>
		<rect x="438.5" y="437.5" fill="#231F20" width="25" height="25"/>
	</g>
	<g>
		<path fill="#231F20" d="M413.5,462.5h-25v-25h25V462.5z M363.5,462.5h-25v-25h25V462.5z M313.5,462.5h-25v-25h25V462.5z
			 M263.5,462.5h-25v-25h25V462.5z M213.5,462.5h-25v-25h25V462.5z M163.5,462.5h-25v-25h25V462.5z M113.5,462.5h-25v-25h25V462.5z"
			/>
	</g>
	<g>
		<rect x="38.5" y="437.5" fill="#231F20" width="25" height="25"/>
	</g>
	<g>
		<path fill="#231F20" d="M63.5,412.5h-25v-25h25V412.5z M63.5,362.5h-25v-25h25V362.5z M63.5,312.5h-25v-25h25V312.5z M63.5,262.5
			h-25v-25h25V262.5z M63.5,212.5h-25v-25h25V212.5z M63.5,162.5h-25v-25h25V162.5z M63.5,112.5h-25v-25h25V112.5z"/>
	</g>
	<g>
		<rect x="38.5" y="37.5" fill="#231F20" width="25" height="25"/>
	</g>
	<g>
		<path fill="#231F20" d="M413.5,62.5h-25v-25h25V62.5z M363.5,62.5h-25v-25h25V62.5z M313.5,62.5h-25v-25h25V62.5z M263.5,62.5h-25
			v-25h25V62.5z M213.5,62.5h-25v-25h25V62.5z M163.5,62.5h-25v-25h25V62.5z M113.5,62.5h-25v-25h25V62.5z"/>
	</g>
	<g>
		<rect x="438.5" y="37.5" fill="#231F20" width="25" height="25"/>
	</g>
	<g>
		<path fill="#231F20" d="M463.5,412.5h-25v-25h25V412.5z M463.5,362.5h-25v-25h25V362.5z M463.5,312.5h-25v-25h25V312.5z
			 M463.5,262.5h-25v-25h25V262.5z M463.5,212.5h-25v-25h25V212.5z M463.5,162.5h-25v-25h25V162.5z M463.5,112.5h-25v-25h25V112.5z"
			/>
	</g>
</g>
<g>
	<path fill="#231F20" d="M411,362.5H91V87h320V362.5z M116,337.5h270V112H116V337.5z"/>
</g>
<g>
	
		<rect x="307.978" y="127.566" transform="matrix(0.7106 0.7036 -0.7036 0.7106 213.7049 -175.7233)" fill="#231F20" width="25" height="88.744"/>
</g>
<g>
	
		<rect x="276.106" y="159.438" transform="matrix(0.7107 0.7035 -0.7035 0.7107 213.6897 -175.7188)" fill="#231F20" width="88.744" height="25"/>
</g>
</svg>
