<?xml version="1.0" encoding="utf-8"?>
<!-- Generator: Adobe Illustrator 17.0.1, SVG Export Plug-In . SVG Version: 6.00 Build 0)  -->
<!DOCTYPE svg PUBLIC "-//W3C//DTD SVG 1.1//EN" "http://www.w3.org/Graphics/SVG/1.1/DTD/svg11.dtd">
<svg version="1.1" id="Layer_2" xmlns="http://www.w3.org/2000/svg" xmlns:xlink="http://www.w3.org/1999/xlink" x="0px" y="0px"
	 width="500px" height="500px" viewBox="0 0 500 500" enable-background="new 0 0 500 500" xml:space="preserve">
<g>
	<path fill="#231F20" d="M462.5,462.5h-425v-425h425V462.5z M62.5,437.5h375v-375h-375V437.5z"/>
</g>
<g>
	<rect x="251.289" y="100" fill="#231F20" width="150.211" height="40.158"/>
</g>
<g>
	<rect x="251.5" y="187.5" fill="#231F20" width="100" height="25"/>
</g>
<g>
	<rect x="251.5" y="231.25" fill="#231F20" width="37" height="25"/>
</g>
<g>
	<rect x="374.5" y="187.5" fill="#231F20" width="26.871" height="25"/>
</g>
<g>
	<rect x="314.5" y="231.25" fill="#231F20" width="87" height="25"/>
</g>
<g>
	<rect x="251.5" y="275" fill="#231F20" width="112.543" height="25"/>
</g>
<g>
	<rect x="251.5" y="318.75" fill="#231F20" width="63" height="25"/>
</g>
<g>
	<rect x="340.872" y="318.75" fill="#231F20" width="42" height="25"/>
</g>
<g>
	<rect x="251.5" y="362.5" fill="#231F20" width="150" height="25"/>
</g>
<circle fill="#231F20" cx="164" cy="135.75" r="35.75"/>
<path fill="#231F20" d="M164,184.5c0,0-62.5,3.5-62.5,28.5s0,50,0,50h125v-50C226.5,213,210.5,184.5,164,184.5z"/>
</svg>
