<?xml version="1.0" encoding="utf-8"?>
<!-- Generator: Adobe Illustrator 17.0.1, SVG Export Plug-In . SVG Version: 6.00 Build 0)  -->
<!DOCTYPE svg PUBLIC "-//W3C//DTD SVG 1.1//EN" "http://www.w3.org/Graphics/SVG/1.1/DTD/svg11.dtd">
<svg version="1.1" id="BLANK" xmlns="http://www.w3.org/2000/svg" xmlns:xlink="http://www.w3.org/1999/xlink" x="0px" y="0px"
	 width="500px" height="500px" viewBox="0 0 500 500" enable-background="new 0 0 500 500" xml:space="preserve">
<g>
	<path fill="#231F20" d="M463.5,462.5h-425v-425h425V462.5z M63.5,437.5h375v-375h-375V437.5z"/>
</g>
<g>
	<rect x="101" y="100" fill="#231F20" width="37" height="40.158"/>
</g>
<g>
	<rect x="164" y="100" fill="#231F20" width="144.05" height="40.158"/>
</g>
<g>
	<rect x="101" y="187.5" fill="#231F20" width="100" height="25"/>
</g>
<g>
	<rect x="238.5" y="187.5" fill="#231F20" width="153.5" height="25"/>
</g>
<g>
	<rect x="101" y="231.25" fill="#231F20" width="37" height="25"/>
</g>
<g>
	<rect x="164" y="231.25" fill="#231F20" width="87" height="25"/>
</g>
<g>
	<rect x="282.587" y="231.25" fill="#231F20" width="123.413" height="25"/>
</g>
<g>
	<rect x="101" y="275" fill="#231F20" width="112.543" height="25"/>
</g>
<g>
	<rect x="238.5" y="275" fill="#231F20" width="122.438" height="25"/>
</g>
<g>
	<rect x="101" y="318.75" fill="#231F20" width="63" height="25"/>
</g>
<g>
	<rect x="190.372" y="318.75" fill="#231F20" width="135.715" height="25"/>
</g>
<g>
	<rect x="101" y="362.5" fill="#231F20" width="143.583" height="25"/>
</g>
<g>
	<rect x="265.738" y="362.5" fill="#231F20" width="42.312" height="25"/>
</g>
</svg>
