<?xml version="1.0" encoding="utf-8"?>
<!-- Generator: Adobe Illustrator 17.0.1, SVG Export Plug-In . SVG Version: 6.00 Build 0)  -->
<!DOCTYPE svg PUBLIC "-//W3C//DTD SVG 1.1//EN" "http://www.w3.org/Graphics/SVG/1.1/DTD/svg11.dtd">
<svg version="1.1" id="Layer_2" xmlns="http://www.w3.org/2000/svg" xmlns:xlink="http://www.w3.org/1999/xlink" x="0px" y="0px"
	 width="500px" height="500px" viewBox="0 0 500 500" enable-background="new 0 0 500 500" xml:space="preserve">
<g>
	<g>
		<path fill="#231F20" d="M462.5,466.5h-425v-425h425V466.5z M62.5,441.5h375v-375h-375V441.5z"/>
	</g>
</g>
<g>
	<g>
		<rect x="199.895" y="199.5" fill="#231F20" width="51.888" height="50"/>
	</g>
</g>
<g>
	<g>
		<rect x="274.056" y="199.5" fill="#231F20" width="51.888" height="50"/>
	</g>
</g>
<g>
	<g>
		<rect x="348.217" y="199.5" fill="#231F20" width="51.888" height="50"/>
	</g>
</g>
<g>
	<g>
		<rect x="199.895" y="274.5" fill="#231F20" width="51.888" height="50"/>
	</g>
</g>
<g>
	<g>
		<rect x="274.056" y="274.5" fill="#231F20" width="51.888" height="50"/>
	</g>
</g>
<g>
	<g>
		<rect x="348.217" y="274.5" fill="#231F20" width="51.888" height="50"/>
	</g>
</g>
<g>
	<g>
		<rect x="199.895" y="349.5" fill="#231F20" width="51.888" height="50"/>
	</g>
</g>
<g>
	<g>
		<rect x="274.056" y="349.5" fill="#231F20" width="51.888" height="50"/>
	</g>
</g>
<g>
	<g>
		<rect x="348.217" y="349.5" fill="#231F20" width="51.888" height="50"/>
	</g>
</g>
<g>
	<g>
		<rect x="100" y="199.5" fill="#231F20" width="75" height="25"/>
	</g>
</g>
<g>
	<g>
		<rect x="100" y="249.5" fill="#231F20" width="75" height="25"/>
	</g>
</g>
<g>
	<g>
		<rect x="100" y="299.5" fill="#231F20" width="75" height="25"/>
	</g>
</g>
<g>
	<g>
		<rect x="100" y="349.5" fill="#231F20" width="75" height="25"/>
	</g>
</g>
<g>
	<rect x="51.783" y="141.5" fill="#231F20" width="400" height="25"/>
</g>
<g>
	<rect x="101.783" y="91.5" fill="#231F20" width="50" height="25"/>
</g>
<g>
	<rect x="201.783" y="91.5" fill="#231F20" width="200" height="25"/>
</g>
</svg>
