<?xml version="1.0" encoding="utf-8"?>
<!-- Generator: Adobe Illustrator 17.0.1, SVG Export Plug-In . SVG Version: 6.00 Build 0)  -->
<!DOCTYPE svg PUBLIC "-//W3C//DTD SVG 1.1//EN" "http://www.w3.org/Graphics/SVG/1.1/DTD/svg11.dtd">
<svg version="1.1" id="Layer_3" xmlns="http://www.w3.org/2000/svg" xmlns:xlink="http://www.w3.org/1999/xlink" x="0px" y="0px"
	 width="500px" height="500px" viewBox="0 0 500 500" enable-background="new 0 0 500 500" xml:space="preserve">
<g>
	<path fill="#231F20" d="M464,462.5H39v-425h425V462.5z M64,437.5h375v-375H64V437.5z"/>
</g>
<g>
	<rect x="51.5" y="137.5" fill="#231F20" width="400" height="25"/>
</g>
<g>
	<rect x="101.5" y="87.5" fill="#231F20" width="50" height="25"/>
</g>
<g>
	<rect x="201.5" y="87.5" fill="#231F20" width="200" height="25"/>
</g>
<g>
	<rect x="101.5" y="200" fill="#231F20" width="75" height="125"/>
</g>
<g>
	<rect x="101.5" y="350" fill="#231F20" width="75" height="100"/>
</g>
<g>
	<rect x="214" y="200" fill="#231F20" width="75" height="73"/>
</g>
<g>
	<rect x="214" y="301" fill="#231F20" width="75" height="99"/>
</g>
<g>
	<rect x="214" y="425" fill="#231F20" width="75" height="25"/>
</g>
<g>
	<rect x="326.5" y="200" fill="#231F20" width="75" height="100"/>
</g>
<g>
	<rect x="326.5" y="325" fill="#231F20" width="75" height="50.448"/>
</g>
<g>
	<rect x="326.5" y="400" fill="#231F20" width="75" height="50"/>
</g>
</svg>
