<?xml version="1.0" encoding="utf-8"?>
<!-- Generator: Adobe Illustrator 17.0.1, SVG Export Plug-In . SVG Version: 6.00 Build 0)  -->
<!DOCTYPE svg PUBLIC "-//W3C//DTD SVG 1.1//EN" "http://www.w3.org/Graphics/SVG/1.1/DTD/svg11.dtd">
<svg version="1.1" id="BLANK" xmlns="http://www.w3.org/2000/svg" xmlns:xlink="http://www.w3.org/1999/xlink" x="0px" y="0px"
	 width="500px" height="500px" viewBox="0 0 500 500" enable-background="new 0 0 500 500" xml:space="preserve">
<g>
	<path fill="#231F20" d="M463.5,462.376h-425v-425h425V462.376z M63.5,437.376h375v-375h-375V437.376z"/>
</g>
<g>
	<g>
		<rect x="184.693" y="332.751" fill="#231F20" width="81.193" height="25"/>
	</g>
</g>
<g>
	<g>
		<rect x="184.693" y="380.498" fill="#231F20" width="126.525" height="25"/>
	</g>
</g>
<g>
	<g>
		<rect x="289.16" y="332.751" fill="#231F20" width="44.116" height="25"/>
	</g>
</g>
<g>
	<rect x="100.5" y="332.751" fill="#231F20" width="59.147" height="72.746"/>
</g>
<path fill="#231F20" d="M51,46.124v253.752h399.614V46.124H51z M368.563,249.174l-79.105-80.896l-64.86,32.682l-62.872-69.857
	L88.053,247.135l-21.105-13.4l91.327-143.837l72.129,80.143l64.14-32.318l91.895,93.974L368.563,249.174z M378.753,148
	c-19.19,0-34.747-15.557-34.747-34.747c0-19.19,15.557-34.747,34.747-34.747c19.191,0,34.747,15.557,34.747,34.747
	C413.5,132.443,397.943,148,378.753,148z"/>
</svg>
