<?xml version="1.0" encoding="utf-8"?>
<!-- Generator: Adobe Illustrator 17.0.1, SVG Export Plug-In . SVG Version: 6.00 Build 0)  -->
<!DOCTYPE svg PUBLIC "-//W3C//DTD SVG 1.1//EN" "http://www.w3.org/Graphics/SVG/1.1/DTD/svg11.dtd">
<svg version="1.1" id="Layer_2" xmlns="http://www.w3.org/2000/svg" xmlns:xlink="http://www.w3.org/1999/xlink" x="0px" y="0px"
	 width="500px" height="500px" viewBox="0 0 500 500" enable-background="new 0 0 500 500" xml:space="preserve">
<g>
	<path fill="#231F20" d="M212,462.5H38.5v-425H212V462.5z M63.5,437.5H187v-375H63.5V437.5z"/>
</g>
<g>
	<g>
		<rect x="438.5" y="437.5" fill="#231F20" width="25" height="25"/>
	</g>
	<g>
		<path fill="#231F20" d="M413.5,462.5h-25v-25h25V462.5z M363.5,462.5h-25v-25h25V462.5z M313.5,462.5h-25v-25h25V462.5z
			 M263.5,462.5h-25v-25h25V462.5z"/>
	</g>
	<g>
		<path fill="#231F20" d="M413.5,62.5h-25v-25h25V62.5z M363.5,62.5h-25v-25h25V62.5z M313.5,62.5h-25v-25h25V62.5z M263.5,62.5h-25
			v-25h25V62.5z"/>
	</g>
	<g>
		<rect x="438.5" y="37.5" fill="#231F20" width="25" height="25"/>
	</g>
	<g>
		<path fill="#231F20" d="M463.5,412.5h-25v-25h25V412.5z M463.5,362.5h-25v-25h25V362.5z M463.5,312.5h-25v-25h25V312.5z
			 M463.5,262.5h-25v-25h25V262.5z M463.5,212.5h-25v-25h25V212.5z M463.5,162.5h-25v-25h25V162.5z M463.5,112.5h-25v-25h25V112.5z"
			/>
	</g>
</g>
</svg>
